<svg width="17" height="17" viewBox="0 0 17 17" fill="none" xmlns="http://www.w3.org/2000/svg">
<path d="M11.015 11.014C10.3482 11.6808 9.44386 12.0554 8.50087 12.0554C7.55788 12.0554 6.65351 11.6808 5.98671 11.014C5.31991 10.3473 4.94531 9.44288 4.94531 8.49989C4.94531 7.5569 5.31991 6.65253 5.98671 5.98573C6.65351 5.31894 7.55788 4.94434 8.50087 4.94434C9.44386 4.94434 10.3482 5.31894 11.015 5.98573C11.6818 6.65253 12.0564 7.5569 12.0564 8.49989C12.0564 9.44288 11.6818 10.3473 11.015 11.014Z" stroke="white" stroke-linecap="round" stroke-linejoin="round"/>
<path d="M0.5 12.0556V4.94444C0.5 3.7657 0.968253 2.63524 1.80175 1.80175C2.63524 0.968253 3.7657 0.5 4.94444 0.5H12.0556C13.2343 0.5 14.3648 0.968253 15.1983 1.80175C16.0317 2.63524 16.5 3.7657 16.5 4.94444V12.0556C16.5 13.2343 16.0317 14.3648 15.1983 15.1983C14.3648 16.0317 13.2343 16.5 12.0556 16.5H4.94444C3.7657 16.5 2.63524 16.0317 1.80175 15.1983C0.968253 14.3648 0.5 13.2343 0.5 12.0556Z" stroke="white"/>
<path d="M13.3906 3.62013L13.3995 3.61035" stroke="white" stroke-linecap="round" stroke-linejoin="round"/>
</svg>
