<svg preserveAspectRatio="none" width="100%" height="100%" overflow="visible" style="display: block;" viewBox="0 0 53.3839 44" fill="none" xmlns="http://www.w3.org/2000/svg">
<g id="logos:google-meet" clip-path="url(#clip0_0_17)">
<path id="Vector" d="M30.6992 23.4423L35.9035 29.3967L42.9022 33.8729L44.1196 23.4799L42.9022 13.3213L35.7694 17.2535L30.6992 23.4423Z" fill="var(--fill-0, #00832D)"/>
<path id="Vector_2" d="M0.5 32.9062V41.7625C0.5 43.7847 2.13989 45.4265 4.16055 45.4265H13.0085L14.8407 38.7349L13.0085 32.9062L6.93818 31.0723L0.5 32.9062Z" fill="var(--fill-0, #0066DA)"/>
<path id="Vector_3" d="M13.0085 1.45898L0.5 13.9794L6.9386 15.8089L13.0085 13.9794L14.8073 8.22993L13.0085 1.45898Z" fill="var(--fill-0, #E94235)"/>
<path id="Vector_4" d="M0.5 32.9094H13.0083V13.9785H0.5V32.9094Z" fill="var(--fill-0, #2684FC)"/>
<path id="Vector_5" d="M50.893 6.76L42.9023 13.3216V33.873L50.926 40.46C52.1271 41.4018 53.8842 40.5435 53.8842 39.0152V8.1756C53.8842 6.63038 52.0852 5.77626 50.8928 6.76021" fill="var(--fill-0, #00AC47)"/>
<path id="Vector_6" d="M30.6991 23.4424V32.9057H13.0078V45.4261H39.2418C41.2625 45.4261 42.9022 43.7842 42.9022 41.7621V33.873L30.6991 23.4424Z" fill="var(--fill-0, #00AC47)"/>
<path id="Vector_7" d="M39.2418 1.45898H13.0078V13.9794H30.6992V23.4427L42.9024 13.3214V5.12321C42.9024 3.10063 41.2625 1.45919 39.2418 1.45919" fill="var(--fill-0, #FFBA00)"/>
</g>
<defs>
<clipPath id="clip0_0_17">
<rect width="53.3839" height="44" fill="white"/>
</clipPath>
</defs>
</svg>
