<svg width="38" height="38" viewBox="0 0 38 38" fill="none" xmlns="http://www.w3.org/2000/svg">
<path d="M25.3008 1.14746C28.7401 0.0562113 32.4178 -0.0428018 35.9102 0.864258V0.865234C36.1628 0.931635 36.3934 1.06432 36.5781 1.24902C36.7629 1.43379 36.8955 1.66428 36.9619 1.91699C37.8804 5.41047 37.7863 9.09308 36.6934 12.5361C35.6003 15.9792 33.5516 19.0411 30.7861 21.3652L30.7783 21.373L28.6445 23.334L28.5361 23.4336L28.5703 23.5771L29.7227 28.3379C29.9699 29.3651 29.8845 30.4444 29.4785 31.4199C29.0736 32.3929 28.3704 33.2122 27.4707 33.7607L20.7344 37.5596C20.5331 37.6731 20.308 37.7375 20.0771 37.748C19.8461 37.7585 19.6152 37.715 19.4043 37.6201C19.1936 37.5253 19.0086 37.3818 18.8633 37.2021C18.7179 37.0223 18.616 36.811 18.5674 36.585L17.457 31.4023L17.3994 31.1357L17.1387 31.2168C15.759 31.6438 14.3379 31.9231 12.8994 32.0508L12.7588 32.0566C12.5671 32.056 12.3774 32.0186 12.2002 31.9453C12.021 31.8711 11.8578 31.7622 11.7207 31.625L6.37305 26.2773C6.21367 26.1177 6.09311 25.9236 6.02051 25.71C5.94793 25.4963 5.92498 25.2687 5.9541 25.0449C6.13984 23.6341 6.45715 22.2435 6.90137 20.8916L6.98828 20.627L6.71582 20.5693L1.41504 19.4326C1.18899 19.384 0.977667 19.2821 0.797852 19.1367C0.618186 18.9914 0.474743 18.8064 0.379883 18.5957C0.284986 18.3848 0.241463 18.1539 0.251953 17.9229C0.262481 17.692 0.326912 17.4669 0.44043 17.2656L4.23535 10.5381L4.24023 10.5293C4.74051 9.55388 5.5762 8.79157 6.59375 8.38379C7.61147 7.97604 8.74282 7.95034 9.77832 8.31055L9.79004 8.31445L9.80176 8.31738L14.2939 9.40039L14.4443 9.43652L14.5439 9.31836L16.4678 7.03418L16.4688 7.03516C18.7994 4.27989 21.861 2.23893 25.3008 1.14746ZM25.7412 26.0049L24.459 27.1826C23.2144 28.2737 21.8341 29.1996 20.3525 29.9375L20.1787 30.0244L20.2197 30.2139L20.9619 33.6729L21.0332 34.0049L21.3291 33.8379L26.0127 31.1953L26.0225 31.1895L26.0312 31.1826C26.3742 30.9453 26.637 30.6093 26.7832 30.2188C26.9294 29.8281 26.9516 29.4013 26.8486 28.9971L26.1533 26.1299L26.0527 25.7178L25.7412 26.0049ZM34.1436 3.48438C31.3173 2.94861 28.3991 3.17253 25.6875 4.13281C22.976 5.09314 20.5681 6.75611 18.709 8.95117H18.708L16.2324 11.8926L16.2285 11.8984L16.2236 11.9033C16.1882 11.9507 16.1503 11.9963 16.1094 12.0391L16.1035 12.0449L16.0986 12.0518L13.2021 15.4893L13.2012 15.4902C11.0177 18.0959 9.56918 21.2375 9.00488 24.5898L8.9834 24.7168L9.07422 24.8076L13.2236 28.9551L13.3096 29.041L13.4316 29.0264C16.7804 28.6044 19.9296 27.2002 22.4824 24.9922L22.4873 24.9873L28.8359 19.1543C31.0527 17.3034 32.7327 14.8904 33.7012 12.1699C34.6697 9.44918 34.8914 6.51802 34.3428 3.68262L34.3105 3.5166L34.1436 3.48438ZM8.98145 11.1465C8.59818 10.984 8.16801 10.9686 7.77441 11.1064C7.37392 11.2468 7.04161 11.5345 6.84473 11.9102L4.16016 16.6709L3.99316 16.9678L4.32617 17.0381L7.95508 17.8164L8.14258 17.8564L8.23047 17.6865C8.98041 16.2269 9.88973 14.8547 10.9424 13.5957L10.9414 13.5947L12.0625 12.2646L12.3232 11.9561L11.9307 11.8604L8.98145 11.1465ZM27.083 8.5791C27.703 8.5791 28.298 8.82529 28.7363 9.26367C29.1747 9.70205 29.4209 10.297 29.4209 10.917C29.4209 11.3793 29.2832 11.8315 29.0264 12.2158C28.7695 12.6 28.4045 12.8993 27.9775 13.0762C27.5504 13.2531 27.0804 13.3002 26.627 13.21C26.1735 13.1198 25.7576 12.8962 25.4307 12.5693C25.1038 12.2424 24.8802 11.8265 24.79 11.373C24.6998 10.9196 24.7469 10.4496 24.9238 10.0225C25.1007 9.59547 25.4 9.23047 25.7842 8.97363C26.1685 8.71681 26.6207 8.57913 27.083 8.5791Z" fill="black" stroke="white" stroke-width="0.5"/>
</svg>
