<svg width="33" height="34" viewBox="0 0 33 34" fill="none" xmlns="http://www.w3.org/2000/svg">
<path d="M4.36914 3.16309H16.0195C16.3395 3.16309 16.6468 3.28939 16.873 3.51562C17.0993 3.74186 17.2256 4.0492 17.2256 4.36914C17.2255 4.68887 17.099 4.99551 16.873 5.22168C16.6468 5.44791 16.3395 5.5752 16.0195 5.5752H4.36914C3.91659 5.5752 3.48211 5.7552 3.16211 6.0752C2.84234 6.39508 2.6632 6.82895 2.66309 7.28125V21.8447C2.66309 22.2972 2.84215 22.7318 3.16211 23.0518C3.48211 23.3718 3.91659 23.5518 4.36914 23.5518H6.55371C7.0667 23.5518 7.55914 23.7554 7.92188 24.1182C8.28445 24.4809 8.48828 24.9734 8.48828 25.4863V26.7139L8.8877 26.4141L11.9961 24.084C12.4565 23.7387 13.0163 23.5521 13.5918 23.5518H24.7578C25.2102 23.5517 25.6439 23.3716 25.9639 23.0518C26.2839 22.7318 26.4639 22.2973 26.4639 21.8447V16.0195C26.4639 15.6997 26.5913 15.3932 26.8174 15.167C27.0435 14.9409 27.3501 14.8136 27.6699 14.8135C27.9899 14.8135 28.2972 14.9408 28.5234 15.167C28.7495 15.3932 28.8769 15.6997 28.877 16.0195V21.8447C28.877 22.9372 28.4424 23.9854 27.6699 24.7578C26.8975 25.5301 25.8501 25.9638 24.7578 25.9639H13.5088L13.4424 26.0137L8.58789 29.6553C7.55269 30.4313 6.0752 29.6923 6.0752 28.3984V25.9639H4.36914C3.27671 25.9639 2.22852 25.5303 1.45605 24.7578C0.683637 23.9854 0.25 22.9371 0.25 21.8447V7.28125L0.254883 7.07715C0.305444 6.05928 0.73206 5.09324 1.45605 4.36914C2.22852 3.59668 3.27671 3.16309 4.36914 3.16309ZM26.2139 0.25C26.4654 0.2501 26.7104 0.32922 26.915 0.475586C27.1196 0.622 27.2742 0.828318 27.3555 1.06641V1.06738L27.5439 1.61621V1.61719C28.0058 2.97049 29.0688 4.03415 30.4238 4.49609L30.9727 4.68457C31.2103 4.76609 31.4164 4.91964 31.5625 5.12402C31.7086 5.3286 31.7881 5.57378 31.7881 5.8252C31.7881 6.07666 31.7087 6.32176 31.5625 6.52637C31.4164 6.73091 31.2104 6.88527 30.9727 6.9668H30.9717L30.4219 7.15527C29.1533 7.58826 28.1392 8.54945 27.6367 9.78418L27.543 10.0352L27.3555 10.584C27.2739 10.8218 27.1196 11.0277 26.915 11.1738C26.7104 11.32 26.4653 11.3994 26.2139 11.3994C25.9625 11.3994 25.7173 11.32 25.5127 11.1738C25.3083 11.0277 25.1548 10.8216 25.0732 10.584L25.0723 10.583L24.8838 10.0332C24.6558 9.36532 24.2773 8.75881 23.7783 8.25977C23.2793 7.76076 22.6727 7.38233 22.0049 7.1543L21.4561 6.9668C21.2182 6.88528 21.0114 6.73098 20.8652 6.52637C20.7191 6.32178 20.6406 6.07662 20.6406 5.8252C20.6407 5.57378 20.7191 5.3286 20.8652 5.12402C21.0114 4.91946 21.2182 4.76607 21.4561 4.68457V4.68359L22.0059 4.49414C23.3588 4.03229 24.4227 2.97087 24.8848 1.61621L25.0732 1.06738L25.1484 0.887695C25.2512 0.695298 25.4048 0.534214 25.5918 0.421875C25.7327 0.337273 25.889 0.282668 26.0508 0.260742L26.2139 0.25ZM26.0186 4.49902C25.6859 4.91769 25.3064 5.29721 24.8877 5.62988L24.6406 5.82617L24.8877 6.02148C25.3085 6.35418 25.6859 6.7306 26.0186 7.15039L26.2139 7.39648L26.4092 7.15039C26.7431 6.73113 27.1198 6.35442 27.5391 6.02051L27.7852 5.8252L27.5391 5.62988C27.1209 5.29717 26.7424 4.91754 26.4102 4.49902L26.2139 4.25293L26.0186 4.49902Z" fill="black" stroke="white" stroke-width="0.5"/>
</svg>
