<svg width="35" height="31" viewBox="0 0 35 31" fill="none" xmlns="http://www.w3.org/2000/svg">
<path d="M16.5298 4.376C15.5649 3.17438 14.2979 2.25092 12.8585 1.70026C11.4192 1.1496 9.85932 0.991553 8.33878 1.24231C4.93675 1.78232 2.13352 4.38759 1.30884 7.73251C0.870061 9.48038 0.989737 11.3218 1.65106 12.9982C3.8713 19.2766 11.759 25.9907 15.4246 28.8576C15.965 29.2812 16.6326 29.5097 17.3192 29.506C18.0058 29.5023 18.671 29.2666 19.2067 28.8373C22.8419 25.9315 30.6557 19.1335 32.8098 12.8308C33.1887 11.8347 33.3809 10.7774 33.3767 9.71169C33.3514 4.90245 29.4312 1.02292 24.6218 1.05C23.3159 1.05622 22.0283 1.3572 20.8549 1.93049C19.6816 2.50377 18.6528 3.33458 17.8453 4.36093C17.7683 4.46179 17.6693 4.54375 17.5558 4.60059C17.4424 4.65744 17.3174 4.68766 17.1905 4.68897C17.0636 4.69028 16.9381 4.66264 16.8235 4.60815C16.7089 4.55366 16.6082 4.47375 16.5291 4.37451L16.5298 4.376Z" stroke="black" stroke-width="2.1" stroke-linecap="round" stroke-linejoin="round"/>
</svg>
