<svg preserveAspectRatio="none" width="100%" height="100%" overflow="visible" style="display: block;" viewBox="0 0 23.3882 23.4882" fill="none" xmlns="http://www.w3.org/2000/svg">
<g id="Group 106">
<path id="Vector" d="M15.6523 0.751953C17.6379 0.12197 19.7526 0.0301116 21.7813 0.481445L22.1855 0.579102C22.3336 0.618111 22.4688 0.695492 22.5771 0.803711C22.6856 0.912191 22.7637 1.04792 22.8027 1.19629C23.3683 3.34737 23.3097 5.6153 22.6367 7.73535C21.9637 9.85514 20.7026 11.7399 19 13.1709L18.9932 13.1777L17.6748 14.3896L17.5879 14.4697L17.6152 14.584L18.3281 17.5264C18.4787 18.1519 18.4259 18.8093 18.1787 19.4033C17.9324 19.9953 17.5051 20.4941 16.958 20.8281L12.7939 23.1768C12.6757 23.2434 12.5428 23.281 12.4072 23.2871C12.2717 23.2932 12.1364 23.2676 12.0127 23.2119C11.8889 23.1562 11.7797 23.0724 11.6943 22.9668C11.609 22.8612 11.55 22.7363 11.5215 22.6035L10.835 19.4004L10.7891 19.1875L10.5801 19.252C9.8353 19.4825 9.07092 19.6433 8.29688 19.7324L7.96484 19.7656L7.88574 19.7686C7.77352 19.7681 7.66233 19.747 7.55859 19.7041C7.45344 19.6606 7.35783 19.5961 7.27734 19.5156L3.97168 16.21C3.87809 16.1162 3.80729 16.0024 3.76465 15.877C3.73265 15.7828 3.71723 15.6839 3.71875 15.585L3.72559 15.4863C3.84001 14.6172 4.03497 13.7606 4.30859 12.9277L4.37891 12.7158L4.16113 12.6689L0.884766 11.9668C0.752003 11.9383 0.627098 11.8793 0.521484 11.7939C0.415938 11.7086 0.332099 11.5993 0.276367 11.4756C0.220636 11.3517 0.195011 11.2158 0.201172 11.0801C0.207394 10.9446 0.244936 10.8125 0.311523 10.6943L2.65723 6.53613L2.66113 6.52832C2.96538 5.93529 3.47407 5.47254 4.09277 5.22461C4.71165 4.97665 5.3996 4.96064 6.0293 5.17969L6.03809 5.18262L6.04785 5.18457L8.82422 5.85449L8.94434 5.88379L9.02441 5.78906L10.2129 4.37695L10.2139 4.37793C11.6489 2.68141 13.5343 1.42401 15.6523 0.751953ZM15.8799 16.04L15.0908 16.7656C14.3238 17.4383 13.4728 18.0091 12.5596 18.4639L12.4209 18.5332L12.4531 18.6846L12.9121 20.8232L12.9688 21.0889L13.2061 20.9551L16.1006 19.3213L16.1084 19.3174L16.1162 19.3115C16.3358 19.1596 16.5041 18.9444 16.5977 18.6943C16.6911 18.4447 16.7051 18.1724 16.6396 17.9141H16.6406L16.21 16.1406L16.1299 15.8105L15.8799 16.04ZM20.7832 2.05273C19.1321 1.79607 17.4407 1.95274 15.8623 2.51172C14.1789 3.10798 12.6836 4.14013 11.5293 5.50293V5.50391L9.99902 7.32129L9.99219 7.33105L9.92383 7.41016L9.91602 7.41992L8.12598 9.54492H8.125C6.77008 11.1618 5.87166 13.1112 5.52148 15.1914L5.50391 15.293L5.57715 15.3662L8.1416 17.9297L8.21094 17.999L8.30762 17.9863C10.3864 17.7244 12.3411 16.853 13.9258 15.4824L13.9307 15.4785L17.8594 11.8682L17.8584 11.8672C19.2315 10.7186 20.2737 9.22362 20.874 7.53711C21.4753 5.84782 21.6131 4.02804 21.2725 2.26758L21.2461 2.13477L21.1133 2.10938L20.7832 2.05273ZM5.56543 6.8457C5.31904 6.7424 5.04271 6.73371 4.79004 6.82227C4.52981 6.91349 4.31418 7.10077 4.1875 7.3457L2.53223 10.2822L2.39844 10.5195L2.66406 10.5762L4.90723 11.0566L5.05762 11.0889L5.12793 10.9531C5.58994 10.0539 6.15033 9.20821 6.79883 8.43262L6.79785 8.43164L7.49121 7.61035L7.69922 7.36328L7.38477 7.28711L5.56543 6.8457ZM16.7402 5.34863C17.1112 5.34863 17.4671 5.49565 17.7295 5.75781C17.9919 6.02025 18.1396 6.3769 18.1396 6.74805C18.1396 7.02471 18.058 7.29535 17.9043 7.52539C17.7506 7.75544 17.532 7.93508 17.2764 8.04102C17.0208 8.14689 16.7391 8.17402 16.4678 8.12012C16.1963 8.06613 15.9467 7.93299 15.751 7.7373C15.5553 7.5416 15.4222 7.29196 15.3682 7.02051C15.3142 6.74913 15.3414 6.46754 15.4473 6.21191C15.5532 5.95631 15.7328 5.7377 15.9629 5.58398C16.193 5.43029 16.4636 5.34866 16.7402 5.34863Z" fill="var(--fill-0, black)" stroke="var(--stroke-0, white)" stroke-width="0.4"/>
</g>
</svg>
