<svg preserveAspectRatio="none" width="100%" height="100%" overflow="visible" style="display: block;" viewBox="0 0 29.6693 29.6693" fill="none" xmlns="http://www.w3.org/2000/svg">
<g id="Layer_1">
<path id="Vector" d="M12.5634 9.64237C13.8304 7.37037 14.4634 6.23438 15.4104 6.23438C16.3574 6.23438 16.9904 7.37037 18.2574 9.64237L18.5854 10.2304C18.9454 10.8764 19.1254 11.1994 19.4054 11.4124C19.6854 11.6254 20.0354 11.7044 20.7354 11.8624L21.3714 12.0064C23.8314 12.5634 25.0604 12.8414 25.3534 13.7824C25.6454 14.7224 24.8074 15.7034 23.1304 17.6644L22.6964 18.1714C22.2204 18.7284 21.9814 19.0074 21.8744 19.3514C21.7674 19.6964 21.8034 20.0684 21.8754 20.8114L21.9414 21.4884C22.1944 24.1054 22.3214 25.4134 21.5554 25.9944C20.7894 26.5754 19.6374 26.0454 17.3354 24.9854L16.7384 24.7114C16.0844 24.4094 15.7574 24.2594 15.4104 24.2594C15.0634 24.2594 14.7364 24.4094 14.0824 24.7114L13.4864 24.9854C11.1834 26.0454 10.0314 26.5754 9.26639 25.9954C8.49939 25.4134 8.62639 24.1054 8.87939 21.4884L8.94539 20.8124C9.01739 20.0684 9.05339 19.6964 8.94539 19.3524C8.83939 19.0074 8.60039 18.7284 8.12439 18.1724L7.69039 17.6644C6.01339 15.7044 5.17539 14.7234 5.46739 13.7824C5.75939 12.8414 6.99039 12.5624 9.45039 12.0064L10.0864 11.8624C10.7854 11.7044 11.1344 11.6254 11.4154 11.4124C11.6964 11.1994 11.8754 10.8764 12.2354 10.2304L12.5634 9.64237Z" stroke="var(--stroke-0, black)" stroke-width="1.5"/>
</g>
</svg>
